#N canvas 296 23 470 804 10;
#X obj 45 18 r \$0-notein;
#X obj 45 40 unpack f f;
#X obj 102 68 moses 1;
#X obj 100 327 *~;
#X obj 122 261 osc~ 455;
#X obj 124 184 line~;
#X obj 206 252 noise~;
#X obj 221 477 *~ 0.02;
#X obj 142 142 del 1;
#X obj 124 304 osc~ 1000;
#X msg 188 226 0;
#X obj 294 249 line~;
#X obj 311 194 del 1;
#X msg 274 220 1 0;
#X obj 182 379 +~;
#X msg 220 407 1.74803 -0.771654 0.141732 -0.834646;
#X obj 220 451 biquad~;
#X obj 152 478 *~ 0.02;
#X obj 151 452 biquad~;
#X msg 151 429 1.84252 -0.866142 -0.0787402 -0.677165;
#X obj 128 216 *~;
#X obj 216 323 *~;
#X obj 31 547 bp~ 400 2;
#X obj 101 547 bp~ 800 2;
#X obj 175 547 bp~ 1600 2;
#X obj 146 581 *~ 0.5;
#X msg 105 165 1 0;
#X obj 122 236 *~ 10000;
#X obj 122 283 *~ 10000;
#X msg 142 164 0 12;
#X obj 265 545 bp~ 6400 2;
#X obj 348 545 bp~ 12800 2;
#X obj 203 661 bp~ 400 7;
#X obj 146 604 clip~ -0.1 0.2;
#X obj 145 662 hip~ 30;
#X obj 105 347 clip~ -0.4 0.4;
#X obj 288 273 *~;
#X obj 172 511 *~ 0.6;
#X obj 146 635 *~ 5;
#X obj 220 380 loadbang;
#X obj 141 98 t b b b b b;
#X msg 311 218 0 350;
#X obj 217 346 *~ 0.04;
#X obj 206 276 bp~ 1500 1;
#X obj 121 695 lop~ 1000;
#X obj 120 749 throw~ temp;
#X obj 158 727 r \$0-set-throw;
#X obj 260 48 r \$0-all-notes-off;
#X connect 0 0 1 0;
#X connect 1 1 2 0;
#X connect 2 1 40 0;
#X connect 3 0 35 0;
#X connect 4 0 28 0;
#X connect 5 0 20 0;
#X connect 5 0 20 1;
#X connect 5 0 3 0;
#X connect 6 0 43 0;
#X connect 7 0 37 0;
#X connect 8 0 29 0;
#X connect 9 0 3 1;
#X connect 10 0 9 1;
#X connect 10 0 4 1;
#X connect 11 0 36 0;
#X connect 11 0 36 1;
#X connect 12 0 41 0;
#X connect 13 0 11 0;
#X connect 14 0 18 0;
#X connect 14 0 16 0;
#X connect 15 0 16 0;
#X connect 16 0 7 0;
#X connect 17 0 37 0;
#X connect 18 0 17 0;
#X connect 19 0 18 0;
#X connect 20 0 27 0;
#X connect 21 0 42 0;
#X connect 22 0 25 0;
#X connect 23 0 25 0;
#X connect 24 0 25 0;
#X connect 25 0 33 0;
#X connect 26 0 5 0;
#X connect 27 0 4 0;
#X connect 28 0 9 0;
#X connect 29 0 5 0;
#X connect 30 0 25 0;
#X connect 31 0 25 0;
#X connect 32 0 44 0;
#X connect 33 0 38 0;
#X connect 33 0 44 0;
#X connect 34 0 44 0;
#X connect 35 0 14 0;
#X connect 36 0 21 1;
#X connect 37 0 22 0;
#X connect 37 0 23 0;
#X connect 37 0 24 0;
#X connect 37 0 30 0;
#X connect 37 0 31 0;
#X connect 38 0 32 0;
#X connect 38 0 34 0;
#X connect 39 0 19 0;
#X connect 39 0 15 0;
#X connect 40 0 26 0;
#X connect 40 1 8 0;
#X connect 40 2 10 0;
#X connect 40 3 13 0;
#X connect 40 4 12 0;
#X connect 41 0 11 0;
#X connect 42 0 14 1;
#X connect 43 0 21 0;
#X connect 44 0 45 0;
#X connect 46 0 45 0;
