#N canvas 767 23 483 280 10;
#X obj -260 40 r \$0-notein;
#X obj -260 62 unpack f f;
#X obj -260 84 spigot;
#X obj -275 112 f;
#X obj -275 134 pack f 90;
#X obj -275 16 r \$0-play-sound;
#X obj -270 173 glock, f 6;
#X obj -267 227 throw~ temp;
#X obj -207 190 r \$0-set-throw;
#X connect 0 0 1 0;
#X connect 1 0 2 0;
#X connect 1 1 2 1;
#X connect 2 0 3 1;
#X connect 3 0 4 0;
#X connect 4 0 6 0;
#X connect 5 0 3 0;
#X connect 6 0 7 0;
#X connect 8 0 7 0;
