#N canvas 1384 267 268 286 10;
#X obj 40 60 unpack f f;
#X obj 60 172 *~ 1;
#X obj 40 82 mtof;
#X obj 112 92 / 127;
#X obj 128 149 r \$0-set-throw;
#X obj 61 204 throw~ sin-sigout;
#X obj 40 10 r sin-notein;
#X obj 35 121 phasor~;
#X connect 0 0 2 0;
#X connect 0 1 3 0;
#X connect 1 0 5 0;
#X connect 2 0 7 0;
#X connect 3 0 1 1;
#X connect 4 0 5 0;
#X connect 6 0 0 0;
#X connect 7 0 1 0;
