#N canvas 240 52 485 301 10;
#X obj 167 26 table bass;
#X obj 167 48 table snare;
#X obj 167 70 table hihat;
#X obj 167 92 table crash;
#X obj 261 19 loadbang;
#X msg 305 41 read -resize bass.wav bass;
#X obj 305 63 soundfiler;
#X obj 286 112 soundfiler;
#X obj 273 167 soundfiler;
#X obj 261 217 soundfiler;
#X msg 286 90 read -resize hihat.wav hihat;
#X msg 273 145 read -resize snare.wav snare;
#X msg 261 195 read -resize crash.wav crash;
#X obj 23 112 tabplay~ bass;
#X obj 49 136 tabplay~ snare;
#X obj 71 160 tabplay~ hihat;
#X obj 97 184 tabplay~ crash;
#X obj 23 19 r \$0-notein;
#X obj 23 86 route 36 38 44 49;
#X obj 111 224 r \$0-set-throw;
#X obj 23 41 unpack f f;
#X obj 23 63 spigot;
#X obj 45 256 throw~ temp;
#X connect 4 0 5 0;
#X connect 4 0 10 0;
#X connect 4 0 11 0;
#X connect 4 0 12 0;
#X connect 5 0 6 0;
#X connect 10 0 7 0;
#X connect 11 0 8 0;
#X connect 12 0 9 0;
#X connect 13 0 22 0;
#X connect 14 0 22 0;
#X connect 15 0 22 0;
#X connect 16 0 22 0;
#X connect 17 0 20 0;
#X connect 18 0 13 0;
#X connect 18 1 14 0;
#X connect 18 2 15 0;
#X connect 18 3 16 0;
#X connect 19 0 22 0;
#X connect 20 0 21 0;
#X connect 20 1 21 1;
#X connect 21 0 18 0;
