#N canvas 208 173 315 300 10;
#X obj 37 19 r \$0-notein;
#X obj 37 63 pack f f f;
#X obj 37 85 route 1 2 3 4;
#X obj 26 244 throw~ temp;
#X obj 91 215 r \$0-set-throw;
#X obj 37 41 poly 4 0;
#X obj 38 120 sp-voice;
#X obj 56 144 sp-voice;
#X obj 75 168 sp-voice;
#X obj 94 192 sp-voice;
#X obj 171 94 r \$0-all-notes-off;
#X connect 0 0 5 0;
#X connect 1 0 2 0;
#X connect 2 0 6 0;
#X connect 2 1 7 0;
#X connect 2 2 8 0;
#X connect 2 3 9 0;
#X connect 4 0 3 0;
#X connect 5 0 1 0;
#X connect 5 1 1 1;
#X connect 5 2 1 2;
#X connect 6 0 3 0;
#X connect 7 0 3 0;
#X connect 8 0 3 0;
#X connect 9 0 3 0;
#X connect 10 0 6 1;
#X connect 10 0 7 1;
#X connect 10 0 8 1;
#X connect 10 0 9 1;
