#N canvas 1155 111 233 354 10;
#X obj 21 145 phasor~;
#X obj 40 38 unpack f f;
#X obj 48 288 *~;
#X obj 131 77 / 127;
#X msg 176 197 \$1 600;
#X obj 30 62 mtof;
#X obj 177 226 line~;
#X obj 20 175 hip~ 1000;
#X obj 41 17 inlet;
#X obj 38 321 outlet~;
#X obj 41 248 vcf~ 2;
#X obj 116 159 + 200;
#X obj 116 137 * 2000;
#X obj 111 210 line~;
#X msg 116 181 \$1 600;
#X obj 30 84 sig~;
#X obj 64 81 loadbang;
#X obj 64 125 / 100;
#X obj 64 103 random 100;
#X obj 145 14 inlet;
#X msg 145 36 0;
#X connect 0 0 7 0;
#X connect 1 0 5 0;
#X connect 1 1 3 0;
#X connect 2 0 9 0;
#X connect 3 0 4 0;
#X connect 3 0 12 0;
#X connect 4 0 6 0;
#X connect 5 0 15 0;
#X connect 6 0 2 1;
#X connect 7 0 10 0;
#X connect 8 0 1 0;
#X connect 10 0 2 0;
#X connect 11 0 14 0;
#X connect 12 0 11 0;
#X connect 13 0 10 1;
#X connect 14 0 13 0;
#X connect 15 0 0 0;
#X connect 16 0 18 0;
#X connect 17 0 0 1;
#X connect 18 0 17 0;
#X connect 19 0 20 0;
#X connect 20 0 3 0;
