#N canvas 787 143 847 773 10;
#X obj -329 24 r \$0-notein;
#X obj 46 15 loadbang;
#X obj 206 83 f;
#X obj 206 106 + 1;
#X obj 208 213 soundfiler;
#X obj 164 91 bng 15 250 50 0 empty empty empty 17 7 0 10 -262144 -1
-1;
#X obj 206 151 pack f f;
#X obj 11 84 t f b f;
#X obj 46 37 f \$0;
#X obj -346 68 pack f f f;
#X obj -388 199 r \$0-all-notes-off;
#X msg -359 268 0 0;
#X obj -345 99 route 1 2 3 4 5 6 7 8 9 10 11 12 13 14 15;
#X obj -310 595 throw~ temp;
#X obj -259 563 r \$0-set-throw;
#X obj -346 46 poly 10 0;
#X obj -183 234 glock_voice;
#X obj -183 256 glock_voice;
#X obj -183 278 glock_voice;
#X obj -183 300 glock_voice;
#X obj -182 322 glock_voice;
#X obj -182 344 glock_voice;
#X obj -182 366 glock_voice;
#X obj -182 388 glock_voice;
#X obj -182 410 glock_voice;
#X obj -182 432 glock_voice;
#X msg 206 62 65;
#X obj 206 129 moses 91;
#X obj 243 245 table \$0-key87;
#X obj 243 267 table \$0-key88;
#X obj 244 289 table \$0-key89;
#X obj 243 311 table \$0-key90;
#X obj 243 333 table \$0-key91;
#X obj 148 267 table \$0-key66;
#X obj 148 289 table \$0-key67;
#X obj 148 311 table \$0-key68;
#X obj 148 333 table \$0-key69;
#X obj 148 355 table \$0-key70;
#X obj 148 376 table \$0-key71;
#X obj 148 399 table \$0-key72;
#X obj 148 421 table \$0-key73;
#X obj 148 443 table \$0-key74;
#X obj 148 465 table \$0-key75;
#X obj 148 486 table \$0-key76;
#X obj 148 509 table \$0-key77;
#X obj 148 532 table \$0-key78;
#X obj 148 553 table \$0-key79;
#X obj 148 576 table \$0-key80;
#X obj 148 598 table \$0-key81;
#X obj 148 619 table \$0-key82;
#X obj 148 641 table \$0-key83;
#X obj 148 663 table \$0-key84;
#X obj 148 683 table \$0-key85;
#X obj 148 707 table \$0-key86;
#X msg 208 191 read -resize glock-\$1.wav \$2-key\$1;
#X obj -379 11 inlet;
#X obj -311 532 catch~ \$0-glock-main;
#X connect 0 0 15 0;
#X connect 1 0 8 0;
#X connect 2 0 3 0;
#X connect 3 0 2 1;
#X connect 3 0 27 0;
#X connect 4 0 5 0;
#X connect 5 0 2 0;
#X connect 6 0 54 0;
#X connect 7 0 16 1;
#X connect 7 0 17 1;
#X connect 7 0 18 1;
#X connect 7 0 19 1;
#X connect 7 0 20 1;
#X connect 7 0 21 1;
#X connect 7 0 22 1;
#X connect 7 0 23 1;
#X connect 7 0 24 1;
#X connect 7 0 25 1;
#X connect 7 1 26 0;
#X connect 7 2 6 1;
#X connect 8 0 7 0;
#X connect 9 0 12 0;
#X connect 10 0 11 0;
#X connect 11 0 16 0;
#X connect 11 0 17 0;
#X connect 11 0 18 0;
#X connect 11 0 19 0;
#X connect 11 0 20 0;
#X connect 11 0 21 0;
#X connect 11 0 22 0;
#X connect 11 0 23 0;
#X connect 11 0 24 0;
#X connect 11 0 25 0;
#X connect 12 0 25 0;
#X connect 12 1 24 0;
#X connect 12 2 23 0;
#X connect 12 3 22 0;
#X connect 12 4 21 0;
#X connect 12 5 20 0;
#X connect 12 6 19 0;
#X connect 12 7 18 0;
#X connect 12 8 17 0;
#X connect 12 9 16 0;
#X connect 14 0 13 0;
#X connect 15 0 9 0;
#X connect 15 1 9 1;
#X connect 15 2 9 2;
#X connect 26 0 2 0;
#X connect 27 0 6 0;
#X connect 54 0 4 0;
#X connect 55 0 15 0;
#X connect 56 0 13 0;
