#N canvas 446 23 847 773 10;
#X obj -346 24 r \$0-notein;
#X obj 46 15 loadbang;
#X obj 206 129 moses 109;
#X text 241 76 load keys btwn 21 and 108;
#X obj 206 83 f;
#X msg 206 62 21;
#X obj 206 106 + 1;
#X obj 208 213 soundfiler;
#X obj 164 91 bng 15 250 50 0 empty empty empty 17 7 0 10 -262144 -1
-1;
#X obj -38 246 table \$0-key21;
#X obj -38 268 table \$0-key22;
#X obj -38 290 table \$0-key23;
#X obj -38 312 table \$0-key24;
#X obj -38 334 table \$0-key25;
#X obj -38 356 table \$0-key26;
#X obj -38 377 table \$0-key27;
#X obj -38 400 table \$0-key28;
#X obj -38 422 table \$0-key29;
#X obj -38 444 table \$0-key30;
#X obj -38 466 table \$0-key31;
#X obj -38 488 table \$0-key32;
#X obj -38 510 table \$0-key33;
#X obj -38 533 table \$0-key34;
#X obj -38 554 table \$0-key35;
#X obj -38 577 table \$0-key36;
#X obj -38 598 table \$0-key37;
#X obj -38 620 table \$0-key38;
#X obj -38 642 table \$0-key39;
#X obj -38 664 table \$0-key40;
#X obj -38 684 table \$0-key41;
#X obj -38 708 table \$0-key42;
#X obj 55 246 table \$0-key43;
#X obj 55 267 table \$0-key44;
#X obj 55 290 table \$0-key45;
#X obj 55 312 table \$0-key46;
#X obj 55 334 table \$0-key47;
#X obj 55 356 table \$0-key48;
#X obj 55 378 table \$0-key49;
#X obj 55 398 table \$0-key50;
#X obj 55 422 table \$0-key51;
#X obj 55 444 table \$0-key52;
#X obj 55 467 table \$0-key53;
#X obj 55 488 table \$0-key54;
#X obj 55 510 table \$0-key55;
#X obj 55 532 table \$0-key56;
#X obj 55 554 table \$0-key57;
#X obj 55 576 table \$0-key58;
#X obj 55 598 table \$0-key59;
#X obj 55 620 table \$0-key60;
#X obj 55 642 table \$0-key61;
#X obj 55 664 table \$0-key62;
#X obj 55 687 table \$0-key63;
#X obj 55 708 table \$0-key64;
#X obj 148 244 table \$0-key65;
#X obj 148 267 table \$0-key66;
#X obj 148 289 table \$0-key67;
#X obj 148 311 table \$0-key68;
#X obj 148 333 table \$0-key69;
#X obj 148 355 table \$0-key70;
#X obj 148 376 table \$0-key71;
#X obj 148 399 table \$0-key72;
#X obj 148 421 table \$0-key73;
#X obj 148 443 table \$0-key74;
#X obj 148 465 table \$0-key75;
#X obj 148 486 table \$0-key76;
#X obj 148 509 table \$0-key77;
#X obj 148 532 table \$0-key78;
#X obj 148 553 table \$0-key79;
#X obj 148 576 table \$0-key80;
#X obj 148 598 table \$0-key81;
#X obj 148 619 table \$0-key82;
#X obj 148 641 table \$0-key83;
#X obj 148 663 table \$0-key84;
#X obj 148 683 table \$0-key85;
#X obj 148 707 table \$0-key86;
#X obj 243 245 table \$0-key87;
#X obj 243 267 table \$0-key88;
#X obj 244 289 table \$0-key89;
#X obj 243 311 table \$0-key90;
#X obj 243 333 table \$0-key91;
#X obj 243 355 table \$0-key92;
#X obj 243 377 table \$0-key93;
#X obj 243 398 table \$0-key94;
#X obj 243 421 table \$0-key95;
#X obj 243 443 table \$0-key96;
#X obj 244 465 table \$0-key97;
#X obj 243 487 table \$0-key98;
#X obj 243 509 table \$0-key99;
#X obj 243 531 table \$0-key100;
#X obj 243 575 table \$0-key102;
#X obj 243 553 table \$0-key101;
#X obj 243 597 table \$0-key103;
#X obj 243 619 table \$0-key104;
#X obj 243 641 table \$0-key105;
#X obj 243 663 table \$0-key106;
#X obj 243 686 table \$0-key107;
#X obj 243 707 table \$0-key108;
#X obj 206 151 pack f f;
#X msg 208 191 read -resize piano_\$1.wav \$2-key\$1;
#X obj 11 84 t f b f;
#X obj 46 37 f \$0;
#X obj -346 68 pack f f f;
#X obj -388 199 r \$0-all-notes-off;
#X msg -359 268 0 0;
#X obj -345 99 route 1 2 3 4 5 6 7 8 9 10 11 12 13 14 15;
#X obj -311 532 catch~ \$0-piano-main;
#X obj -310 595 throw~ temp;
#X obj -259 563 r \$0-set-throw;
#X obj -346 46 poly 10 0;
#X obj -183 234 piano_voice;
#X obj -183 278 piano_voice;
#X obj -183 256 piano_voice;
#X obj -183 300 piano_voice;
#X obj -182 322 piano_voice;
#X obj -182 344 piano_voice;
#X obj -182 366 piano_voice;
#X obj -182 388 piano_voice;
#X obj -182 410 piano_voice;
#X obj -182 432 piano_voice;
#X obj -180 147 piano_voice;
#X obj -180 169 piano_voice;
#X obj -180 191 piano_voice;
#X obj -180 213 piano_voice;
#X obj -180 126 piano_voice;
#X connect 0 0 108 0;
#X connect 1 0 100 0;
#X connect 2 0 97 0;
#X connect 4 0 6 0;
#X connect 5 0 4 0;
#X connect 6 0 4 1;
#X connect 6 0 2 0;
#X connect 7 0 8 0;
#X connect 8 0 4 0;
#X connect 97 0 98 0;
#X connect 98 0 7 0;
#X connect 99 0 109 1;
#X connect 99 0 110 1;
#X connect 99 0 111 1;
#X connect 99 0 112 1;
#X connect 99 0 113 1;
#X connect 99 0 114 1;
#X connect 99 0 115 1;
#X connect 99 0 116 1;
#X connect 99 0 117 1;
#X connect 99 0 118 1;
#X connect 99 0 119 1;
#X connect 99 0 120 1;
#X connect 99 0 121 1;
#X connect 99 0 122 1;
#X connect 99 0 123 1;
#X connect 99 1 5 0;
#X connect 99 2 97 1;
#X connect 100 0 99 0;
#X connect 101 0 104 0;
#X connect 102 0 103 0;
#X connect 103 0 109 0;
#X connect 103 0 110 0;
#X connect 103 0 111 0;
#X connect 103 0 112 0;
#X connect 103 0 113 0;
#X connect 103 0 114 0;
#X connect 103 0 115 0;
#X connect 103 0 116 0;
#X connect 103 0 117 0;
#X connect 103 0 118 0;
#X connect 103 0 119 0;
#X connect 103 0 120 0;
#X connect 103 0 121 0;
#X connect 103 0 122 0;
#X connect 103 0 123 0;
#X connect 104 0 118 0;
#X connect 104 1 117 0;
#X connect 104 2 116 0;
#X connect 104 3 115 0;
#X connect 104 4 114 0;
#X connect 104 5 113 0;
#X connect 104 6 112 0;
#X connect 104 7 110 0;
#X connect 104 8 111 0;
#X connect 104 9 109 0;
#X connect 104 10 123 0;
#X connect 104 11 119 0;
#X connect 104 12 120 0;
#X connect 104 13 121 0;
#X connect 104 14 122 0;
#X connect 105 0 106 0;
#X connect 107 0 106 0;
#X connect 108 0 101 0;
#X connect 108 1 101 1;
#X connect 108 2 101 2;
