#N canvas 853 165 329 396 10;
#X obj 40 89 phasor~;
#X obj 40 46 unpack f f;
#X obj 40 68 mtof;
#X obj 131 78 / 127;
#X obj 96 200 r \$0-set-throw;
#X obj 40 10 r \$0-notein;
#X obj 146 29 r \$0-all-notes-off;
#X obj 40 111 -~ 0.5;
#X obj 40 136 *~ 2;
#X obj 65 171 *~;
#X msg 131 100 \$1 50;
#X obj 131 122 line~;
#X msg 146 51 0;
#X obj 68 224 throw~ temp;
#X obj 194 88 loadbang;
#X obj 194 110 random 100;
#X obj 194 132 / 100;
#X connect 0 0 7 0;
#X connect 1 0 2 0;
#X connect 1 1 3 0;
#X connect 2 0 0 0;
#X connect 3 0 10 0;
#X connect 4 0 13 0;
#X connect 5 0 1 0;
#X connect 6 0 12 0;
#X connect 7 0 8 0;
#X connect 8 0 9 0;
#X connect 9 0 13 0;
#X connect 10 0 11 0;
#X connect 11 0 9 1;
#X connect 12 0 3 0;
#X connect 14 0 15 0;
#X connect 15 0 16 0;
#X connect 16 0 0 1;
