#N canvas 592 146 847 773 10;
#X obj -346 24 r \$0-notein;
#X obj 46 15 loadbang;
#X text 241 76 load keys btwn 21 and 108;
#X obj 206 83 f;
#X obj 206 106 + 1;
#X obj 208 213 soundfiler;
#X obj 164 91 bng 15 250 50 0 empty empty empty 17 7 0 10 -262144 -1
-1;
#X obj 55 290 table \$0-key45;
#X obj 55 312 table \$0-key46;
#X obj 55 334 table \$0-key47;
#X obj 55 356 table \$0-key48;
#X obj 55 378 table \$0-key49;
#X obj 55 398 table \$0-key50;
#X obj 55 422 table \$0-key51;
#X obj 55 444 table \$0-key52;
#X obj 55 467 table \$0-key53;
#X obj 55 488 table \$0-key54;
#X obj 55 510 table \$0-key55;
#X obj 55 532 table \$0-key56;
#X obj 55 554 table \$0-key57;
#X obj 55 576 table \$0-key58;
#X obj 55 598 table \$0-key59;
#X obj 55 620 table \$0-key60;
#X obj 55 642 table \$0-key61;
#X obj 55 664 table \$0-key62;
#X obj 55 687 table \$0-key63;
#X obj 55 708 table \$0-key64;
#X obj 148 244 table \$0-key65;
#X obj 206 151 pack f f;
#X obj 11 84 t f b f;
#X obj 46 37 f \$0;
#X obj -346 68 pack f f f;
#X obj -388 199 r \$0-all-notes-off;
#X msg -359 268 0 0;
#X obj -345 99 route 1 2 3 4 5 6 7 8 9 10 11 12 13 14 15;
#X obj -311 532 catch~ \$0-piano-main;
#X obj -310 595 throw~ temp;
#X obj -259 563 r \$0-set-throw;
#X obj -346 46 poly 10 0;
#X msg 206 62 44;
#X obj 206 129 moses 65;
#X obj -183 234 harp_voice;
#X obj -183 256 harp_voice;
#X obj -183 278 harp_voice;
#X obj -183 300 harp_voice;
#X obj -182 322 harp_voice;
#X obj -182 344 harp_voice;
#X obj -182 366 harp_voice;
#X obj -182 388 harp_voice;
#X obj -182 410 harp_voice;
#X obj -182 432 harp_voice;
#X msg 208 191 read -resize harp-\$1.wav \$2-key\$1;
#X connect 0 0 38 0;
#X connect 1 0 30 0;
#X connect 3 0 4 0;
#X connect 4 0 3 1;
#X connect 4 0 40 0;
#X connect 5 0 6 0;
#X connect 6 0 3 0;
#X connect 28 0 51 0;
#X connect 29 0 41 1;
#X connect 29 0 42 1;
#X connect 29 0 43 1;
#X connect 29 0 44 1;
#X connect 29 0 45 1;
#X connect 29 0 46 1;
#X connect 29 0 47 1;
#X connect 29 0 48 1;
#X connect 29 0 49 1;
#X connect 29 0 50 1;
#X connect 29 1 39 0;
#X connect 29 2 28 1;
#X connect 30 0 29 0;
#X connect 31 0 34 0;
#X connect 32 0 33 0;
#X connect 33 0 41 0;
#X connect 33 0 42 0;
#X connect 33 0 43 0;
#X connect 33 0 44 0;
#X connect 33 0 45 0;
#X connect 33 0 46 0;
#X connect 33 0 47 0;
#X connect 33 0 48 0;
#X connect 33 0 49 0;
#X connect 33 0 50 0;
#X connect 34 0 50 0;
#X connect 34 1 49 0;
#X connect 34 2 48 0;
#X connect 34 3 47 0;
#X connect 34 4 46 0;
#X connect 34 5 45 0;
#X connect 34 6 44 0;
#X connect 34 7 43 0;
#X connect 34 8 42 0;
#X connect 34 9 41 0;
#X connect 35 0 36 0;
#X connect 37 0 36 0;
#X connect 38 0 31 0;
#X connect 38 1 31 1;
#X connect 38 2 31 2;
#X connect 39 0 3 0;
#X connect 40 0 28 0;
#X connect 51 0 5 0;
