#N canvas 456 62 607 976 10;
#X obj 189 571 phasor~;
#X obj 317 600 phasor~;
#X obj 369 598 phasor~;
#X msg 387 536 0.5;
#X msg 357 489 0;
#X obj 95 102 unpack f f;
#X obj 79 141 sel 0;
#X obj 83 223 spigot;
#X msg 28 181 0;
#X obj 159 210 spigot;
#X obj 214 256 pack f f;
#X obj 104 192 == 0;
#X msg 61 312 0 50;
#X obj 203 307 spigot;
#X obj 254 306 spigot;
#X msg 254 363 \$2 50;
#X obj 143 273 tgl 15 0 empty empty empty 17 7 0 10 -262144 -1 -1 0
35;
#X obj 287 286 == 0;
#X msg 280 384 \$1;
#X obj 254 328 t l l;
#X text 339 704 amp;
#X obj 190 597 -~ 0.5;
#X obj 225 775 bp~ 100 3;
#X msg 97 624 1 1000;
#X msg 149 642 0 1000;
#X obj 126 684 line 0 1;
#X obj 127 729 + 300;
#X msg 203 65 35 80;
#X msg 152 62 35 0;
#X obj 382 435 loadbang;
#X obj 244 571 phasor~;
#X obj 248 603 -~ 0.5;
#X obj 318 560 *~ -1;
#X obj 126 706 * 1000;
#X obj 77 8 r \$0-notein;
#X obj 225 797 lop~ 2000;
#X msg 154 357 \$2 150;
#X msg 202 358 \$1 150;
#X obj 270 841 r \$0-set-throw;
#X obj 59 521 line~;
#X obj 294 705 /~ 127;
#X obj 234 729 *~;
#X obj 226 872 throw~ temp;
#X obj 21 432 loadbang;
#X msg 21 454 100;
#X obj 241 420 line~;
#X obj 242 478 mtof~;
#X obj 159 16 loadbang;
#X obj 159 38 t b b;
#X obj -64 141 r \$0-all-notes-off;
#X msg 17 220 0;
#X connect 0 0 21 0;
#X connect 1 0 41 0;
#X connect 2 0 41 0;
#X connect 3 0 2 1;
#X connect 4 0 1 1;
#X connect 4 0 0 1;
#X connect 4 0 30 1;
#X connect 5 0 6 0;
#X connect 5 1 11 0;
#X connect 5 1 9 1;
#X connect 5 1 10 1;
#X connect 6 0 7 0;
#X connect 6 1 9 0;
#X connect 7 0 8 0;
#X connect 7 0 16 0;
#X connect 7 0 12 0;
#X connect 7 0 24 0;
#X connect 8 0 6 1;
#X connect 9 0 10 0;
#X connect 9 0 6 1;
#X connect 9 0 16 0;
#X connect 10 0 13 0;
#X connect 10 0 14 0;
#X connect 11 0 7 1;
#X connect 12 0 39 0;
#X connect 13 0 36 0;
#X connect 13 0 37 0;
#X connect 14 0 19 0;
#X connect 15 0 39 0;
#X connect 16 0 17 0;
#X connect 16 0 13 1;
#X connect 17 0 14 1;
#X connect 18 0 45 0;
#X connect 19 0 15 0;
#X connect 19 0 23 0;
#X connect 19 1 18 0;
#X connect 21 0 41 0;
#X connect 22 0 35 0;
#X connect 23 0 25 0;
#X connect 24 0 25 0;
#X connect 25 0 33 0;
#X connect 26 0 22 1;
#X connect 27 0 5 0;
#X connect 28 0 5 0;
#X connect 29 0 4 0;
#X connect 29 0 3 0;
#X connect 30 0 31 0;
#X connect 31 0 41 0;
#X connect 32 0 2 0;
#X connect 33 0 26 0;
#X connect 34 0 5 0;
#X connect 35 0 42 0;
#X connect 36 0 39 0;
#X connect 37 0 45 0;
#X connect 38 0 42 0;
#X connect 39 0 40 0;
#X connect 40 0 41 1;
#X connect 41 0 22 0;
#X connect 43 0 44 0;
#X connect 44 0 39 0;
#X connect 45 0 46 0;
#X connect 46 0 0 0;
#X connect 46 0 30 0;
#X connect 46 0 1 0;
#X connect 46 0 32 0;
#X connect 47 0 48 0;
#X connect 48 0 28 0;
#X connect 48 1 27 0;
#X connect 49 0 50 0;
#X connect 49 0 12 0;
#X connect 50 0 16 0;
