#N canvas 1288 802 585 348 10;
#X obj 370 212 throw~ temp;
#X obj 138 81 r \$0-set-seq;
#X msg 246 195 set \$1-seq-left;
#X msg 378 189 set \$1-seq-right;
#X obj 0 106 r \$0-done;
#X msg 19 197 \; 0-current-block-done bang \;;
#X obj 50 -9 qlist;
#X obj 167 -45 r \$0-all-notes-off;
#X msg 339 26 add2 \$1-all-notes-off \, add bang;
#X floatatom 369 0 5 0 0 0 - - -, f 5;
#X msg 311 55 \;;
#X msg 319 -52 set \, addsemi;
#X obj 364 -21 r \$0-add-voice-pattern;
#X obj 50 -31 r \$0-qCommand;
#X obj 226 107 catch~ \$0-block-left;
#X obj 374 98 catch~ \$0-block-right;
#X obj 232 218 throw~ temp;
#X msg 29 156 set \, addsemi \, add2 \$1-current-block-done \, add
bang;
#X connect 1 0 2 0;
#X connect 1 0 3 0;
#X connect 1 0 17 0;
#X connect 2 0 16 0;
#X connect 3 0 0 0;
#X connect 4 0 5 0;
#X connect 7 0 10 0;
#X connect 8 0 10 0;
#X connect 9 0 8 0;
#X connect 11 0 10 0;
#X connect 12 0 8 0;
#X connect 13 0 6 0;
#X connect 14 0 16 0;
#X connect 15 0 0 0;
#X connect 17 0 5 0;
