#N canvas 1127 23 711 696 10;
#X obj -53 74 catch~ \$0-sigin;
#X floatatom 287 169 5 0 0 0 - - -, f 5;
#X text 340 172 panning;
#X obj 287 192 / 100;
#X obj 270 222 clip 0 1;
#X obj 271 100 r \$0-pan;
#X text 261 73 receive pan [0 \, 1];
#X text 83 547 signal sent to master;
#X obj 52 162 r \$0-volume;
#X text 43 145 receive volume;
#X text -141 53 signal received from instrument;
#X obj 271 122 unpack f f;
#X obj 285 253 pack f f;
#X obj 231 284 line~;
#X obj 182 135 loadbang;
#X obj -67 245 *~;
#X obj 35 226 line~;
#X msg 160 184 1;
#X obj -14 358 -~;
#X obj -14 327 sig~;
#X obj 182 157 t b b;
#X obj -40 405 *~;
#X obj 188 360 *~;
#X msg 197 184 0.5;
#X msg 265 447 set \$1-vp-right;
#X msg 11 464 set \$1-vp-left;
#X obj -23 515 throw~ temp;
#X obj 226 501 throw~ temp;
#X obj 223 393 r \$0-set-throw;
#X connect 0 0 15 0;
#X connect 1 0 3 0;
#X connect 3 0 4 0;
#X connect 4 0 12 0;
#X connect 5 0 11 0;
#X connect 8 0 16 0;
#X connect 11 0 4 0;
#X connect 11 1 12 1;
#X connect 12 0 13 0;
#X connect 13 0 18 1;
#X connect 13 0 22 1;
#X connect 14 0 20 0;
#X connect 15 0 21 0;
#X connect 15 0 22 0;
#X connect 16 0 15 1;
#X connect 17 0 16 0;
#X connect 17 0 19 0;
#X connect 18 0 21 1;
#X connect 19 0 18 0;
#X connect 20 0 17 0;
#X connect 20 1 23 0;
#X connect 21 0 26 0;
#X connect 22 0 27 0;
#X connect 23 0 13 0;
#X connect 24 0 27 0;
#X connect 25 0 26 0;
#X connect 28 0 24 0;
#X connect 28 0 25 0;
