#N canvas 516 226 438 299 10;
#X obj 188 -150 catch~ master-right;
#X obj 59 -150 catch~ master-left;
#X text 30 -175 catch audio from tracks;
#X obj 327 -112 r \$0-volume;
#X text 318 -129 receive volume;
#X obj 61 -37 *~;
#X obj 188 -37 *~;
#X obj 302 -84 line~;
#X obj 255 -123 loadbang;
#X msg 255 -101 1;
#X obj 309 9 catch~ temp;
#X text 284 -13 to silence warnings;
#X obj 139 35 dac~;
#X connect 0 0 6 0;
#X connect 1 0 5 0;
#X connect 3 0 7 0;
#X connect 5 0 12 0;
#X connect 6 0 12 1;
#X connect 7 0 5 1;
#X connect 7 0 6 1;
#X connect 8 0 9 0;
#X connect 9 0 7 0;
