#N canvas 104 42 965 982 10;
#X obj 630 199 r \$0-next-block;
#X obj 627 119 r \$0-reset-blocks;
#X obj 425 151 spigot;
#X obj 485 122 tgl 15 0 empty empty empty 17 7 0 10 -262144 -1 -1 0
1;
#X obj 514 92 r \$0-continue;
#X floatatom 617 178 5 0 0 0 - - -, f 5;
#X msg 622 145 set;
#X msg 584 260 set \$1;
#X obj 154 840 throw~ master-left;
#X obj 390 826 throw~ master-right;
#X text 259 895 signal sent to master;
#X text 71 621 signal received from tracks;
#X obj 544 608 f 1;
#X obj 721 540 r \$0-volume;
#X text 712 523 receive volume;
#X obj 159 642 catch~ \$0-seq-left;
#X obj 296 652 catch~ \$0-seq-right;
#X msg 544 630 \$1 20;
#X obj 691 635 loadbang;
#X msg 691 657 1;
#X obj 203 759 *~;
#X obj 358 761 *~;
#X obj 555 709 line~;
#X obj 605 589 line;
#X msg 478 638 0 20;
#X text 508 413 a number to fade out (in that many msec) and stop;
#X obj 512 432 r \$0-fadeout;
#X msg 592 462 0 \$1;
#X obj 598 497 s \$0-volume;
#X obj 483 498 s \$0-stop;
#X obj 478 466 del 1000 1 msec;
#X obj 425 55 r \$0-current-block-done;
#X msg 249 343 set \$1;
#X obj 408 204 t b b;
#X obj -43 17 r \$0-start;
#X obj -18 240 t b b;
#X obj 349 279 f 1;
#X text 373 279 tempo;
#X msg 197 373 -3;
#X obj 279 87 r \$0-tempo;
#X msg 197 444 \; \$1-qCommand bang;
#X obj 114 17 r \$0-pause;
#X obj 26 17 r \$0-unpause;
#X obj 185 17 r \$0-stop;
#X obj 50 178 t b b;
#X obj 119 480 bng 15 250 50 0 empty empty empty 17 7 0 10 -262144
-1 -1;
#X msg 284 286 0;
#X obj 87 506 bng 15 250 50 0 empty empty empty 17 7 0 10 -262144 -1
-1;
#X msg 233 372 -3;
#X msg 463 318 -3;
#X obj 658 281 spigot;
#X obj 739 241 loadbang;
#X msg 733 267 1;
#X text 488 313 next block handle;
#X msg 670 250 0;
#X obj 398 98 bng 15 250 50 0 empty empty empty 17 7 0 10 -262144 -1
-1;
#X text -47 -19 API commands received here;
#X text 254 370 current block handle;
#X msg 233 393 \; \$1-qCommand rewind \; \$1-all-notes-off bang \;
;
#X obj 600 221 t b b f;
#X msg 459 346 set \, addsemi \, add2 \$1-qCommand \, add2 tempo \,
adddollar 1;
#X msg 403 378;
#X connect 0 0 59 0;
#X connect 1 0 6 0;
#X connect 1 0 52 0;
#X connect 2 0 33 0;
#X connect 3 0 2 1;
#X connect 4 0 3 0;
#X connect 5 0 59 0;
#X connect 6 0 49 0;
#X connect 7 0 49 0;
#X connect 12 0 17 0;
#X connect 13 0 22 0;
#X connect 13 0 23 0;
#X connect 15 0 20 0;
#X connect 16 0 21 0;
#X connect 17 0 22 0;
#X connect 18 0 19 0;
#X connect 19 0 22 0;
#X connect 20 0 8 0;
#X connect 21 0 9 0;
#X connect 22 0 21 1;
#X connect 22 0 20 1;
#X connect 23 0 12 1;
#X connect 24 0 22 0;
#X connect 26 0 27 0;
#X connect 26 0 30 0;
#X connect 27 0 28 0;
#X connect 30 0 29 0;
#X connect 31 0 2 0;
#X connect 32 0 48 0;
#X connect 32 0 38 0;
#X connect 33 0 35 0;
#X connect 33 1 49 0;
#X connect 34 0 35 0;
#X connect 35 0 38 0;
#X connect 35 0 45 0;
#X connect 35 1 36 0;
#X connect 36 0 61 0;
#X connect 38 0 40 0;
#X connect 39 0 36 0;
#X connect 41 0 46 0;
#X connect 41 0 47 0;
#X connect 42 0 44 0;
#X connect 43 0 48 0;
#X connect 44 0 45 0;
#X connect 44 1 36 0;
#X connect 45 0 12 0;
#X connect 46 0 61 0;
#X connect 47 0 24 0;
#X connect 48 0 58 0;
#X connect 49 0 32 0;
#X connect 49 0 60 0;
#X connect 50 0 49 0;
#X connect 51 0 52 0;
#X connect 52 0 50 1;
#X connect 54 0 50 1;
#X connect 55 0 2 0;
#X connect 59 0 54 0;
#X connect 59 1 50 0;
#X connect 59 2 7 0;
#X connect 60 0 61 0;
