#N canvas 298 72 1118 928 10;
#X floatatom 569 269 5 0 0 0 - - -, f 5;
#X text -202 100 notes received here;
#X obj 500 217 r \$0-add-instrument;
#X obj 454 119 r \$0-reset-instruments;
#X text 438 97 erases current instruments;
#X text 497 195 adds an instrument to this track;
#X msg 453 309 add2 \$1-notein \, adddollar 1 \, adddollar 2 \, addsemi
;
#X msg 454 141 set \, addsemi;
#X text 353 387 notes transmitted to instruments, f 18;
#X obj 20 53 r \$0-pitched;
#X obj 100 182 spigot;
#X text 0 35 receive pitched status;
#X text 191 44 receive pitch offset;
#X obj -46 259 spigot;
#X obj -13 237 == 0;
#X obj 133 159 != 0;
#X obj 115 207 unpack f f;
#X obj 241 270 pack f f;
#X obj 196 248 + 0;
#X obj 88 133 tgl 15 0 empty empty empty 17 7 0 10 -262144 -1 -1 1
1;
#X obj 69 77 loadbang;
#X msg 69 99 1;
#X msg 283 419 \;;
#X obj -172 119 r \$0-note;
#X text -171 282 unpitched tracks go straight to instruments;
#X obj 214 489 r \$0-volume;
#X text 205 472 receive volume;
#X text -166 562 signal received from instrument link;
#X obj 223 741 r \$0-set-throw;
#X obj 211 65 r \$0-pitch-offset;
#X obj -96 845 throw~ temp;
#X obj 128 846 throw~ temp;
#X obj 270 619 loadbang;
#X msg 270 641 1;
#X text -10 896 signal sent to sequence;
#X obj 233 662 line~;
#X obj -58 705 *~;
#X obj 119 705 *~;
#X msg -17 782 set \$1-block-left;
#X msg 216 792 set \$1-block-right;
#X msg 421 479 \;;
#X msg 466 362 add2 \$1-all-notes-off \, add bang;
#X obj 465 448 r \$0-all-notes-off;
#X obj -73 581 catch~ \$0-vp-left;
#X obj 96 574 catch~ \$0-vp-right;
#X connect 0 0 6 0;
#X connect 0 0 41 0;
#X connect 2 0 6 0;
#X connect 2 0 41 0;
#X connect 3 0 7 0;
#X connect 6 0 22 0;
#X connect 7 0 22 0;
#X connect 7 0 40 0;
#X connect 9 0 19 0;
#X connect 10 0 16 0;
#X connect 13 0 22 0;
#X connect 14 0 13 1;
#X connect 15 0 10 1;
#X connect 16 0 18 0;
#X connect 16 1 17 1;
#X connect 17 0 22 0;
#X connect 18 0 17 0;
#X connect 19 0 15 0;
#X connect 19 0 14 0;
#X connect 20 0 21 0;
#X connect 21 0 19 0;
#X connect 23 0 10 0;
#X connect 23 0 13 0;
#X connect 25 0 35 0;
#X connect 28 0 38 0;
#X connect 28 0 39 0;
#X connect 29 0 18 1;
#X connect 32 0 33 0;
#X connect 33 0 35 0;
#X connect 35 0 37 1;
#X connect 35 0 36 1;
#X connect 36 0 30 0;
#X connect 37 0 31 0;
#X connect 38 0 30 0;
#X connect 39 0 31 0;
#X connect 41 0 40 0;
#X connect 42 0 40 0;
#X connect 43 0 36 0;
#X connect 44 0 37 0;
